<svg width="40" height="32" fill="none" xmlns="http://www.w3.org/2000/svg"><path d="M8.24 12.784c.487-3.068 4.322-6.345 7.32-6.414.209 0 .418-.07.557-.21.14-.07.28-.14.349-.348 1.046-1.952.488-3.486-1.255-4.741-2.022-1.464-5.229 0-6.832 1.325C4.335 5.742.222 11.528.43 17.036c-.697 3.696-.558 7.67.488 10.946.697 2.092 2.719 3.137 4.81 3.277 2.092.14 6.414.767 8.297-.488 1.882-1.255 2.022-3.695 2.23-5.787.21-2.3.837-6.623-1.115-8.436-1.952-1.743-7.53.14-6.902-3.764zm23.006 0c.488-3.068 4.323-6.345 7.32-6.414.21 0 .42-.07.558-.21.14-.07.28-.14.35-.348 1.045-1.952.487-3.486-1.256-4.741-2.022-1.464-5.229 0-6.832 1.325-4.044 3.346-8.157 9.133-7.948 14.64-.697 3.696-.558 7.67.488 10.946.697 2.092 2.719 3.137 4.81 3.277 2.092.14 6.415.767 8.297-.488 1.882-1.255 2.022-3.695 2.23-5.787.21-2.3.838-6.623-1.115-8.436-1.952-1.743-7.599.14-6.902-3.764z" fill="#143B19"/></svg>