<svg width="22" height="18" fill="none" xmlns="http://www.w3.org/2000/svg"><path d="M21.5 2.773a8.902 8.902 0 01-2.474.65 4.18 4.18 0 001.894-2.281 8.922 8.922 0 01-2.737 1.001A4.387 4.387 0 0015.038.84c-2.379 0-4.308 1.847-4.308 4.124 0 .323.038.638.112.94-3.58-.172-6.754-1.815-8.879-4.31a3.961 3.961 0 00-.583 2.073c0 1.431.762 2.694 1.916 3.433a4.455 4.455 0 01-1.95-.518v.052c0 1.998 1.485 3.665 3.454 4.044-.36.093-.741.145-1.135.145-.278 0-.547-.026-.81-.077.548 1.64 2.138 2.832 4.023 2.865a8.89 8.89 0 01-5.35 1.763c-.348 0-.69-.02-1.028-.056a12.572 12.572 0 006.603 1.855c7.925 0 12.257-6.285 12.257-11.735l-.015-.534A8.412 8.412 0 0021.5 2.773z" fill="#066F14"/></svg>